<?xml version="1.0" encoding="utf-8"?>
<!-- Generator: Adobe Illustrator 27.5.0, SVG Export Plug-In . SVG Version: 6.00 Build 0)  -->
<svg version="1.1" xmlns="http://www.w3.org/2000/svg" xmlns:xlink="http://www.w3.org/1999/xlink" x="0px" y="0px"
	 viewBox="0 0 750 500" style="enable-background:new 0 0 750 500;" xml:space="preserve">
<g id="BACKGROUND">
	<rect style="fill:#F1DBC2;" width="750" height="500"/>
</g>
<g id="OBJECTS">
	<g>
		<defs>
			<rect id="SVGID_1_" width="750" height="500"/>
		</defs>
		<clipPath id="SVGID_00000103948519527560891510000014705212796854777779_">
			<use xlink:href="#SVGID_1_"  style="overflow:visible;"/>
		</clipPath>
		
			<linearGradient id="SVGID_00000071520460571995949820000001381471407390712735_" gradientUnits="userSpaceOnUse" x1="375.3753" y1="307.1426" x2="375.3753" y2="-8.6442">
			<stop  offset="0" style="stop-color:#F3D78A"/>
			<stop  offset="1" style="stop-color:#D18888"/>
		</linearGradient>
		
			<rect style="clip-path:url(#SVGID_00000103948519527560891510000014705212796854777779_);fill:url(#SVGID_00000071520460571995949820000001381471407390712735_);" width="750.751" height="324.055"/>
		<path style="clip-path:url(#SVGID_00000103948519527560891510000014705212796854777779_);fill:#F7E5C6;" d="M604.01,187.214
			c-5.25-9.153-123.524,14.286-168.494,22.229s-42.174,22.977-79.745,33.863s-31.234,10.971-66.461,13.106
			c-35.227,2.135-51.388,17.947-62.29,21.103c-10.902,3.156,375.239,0,375.239,0L604.01,187.214z"/>
		<g style="opacity:0.1;clip-path:url(#SVGID_00000103948519527560891510000014705212796854777779_);">
			<path style="fill:#F7E5C6;" d="M106.785,0.683c0,0,51.823-1.04,97.002,0.979s167.747-2.019,148.984,0s-58.626,9.328-87.86,9.765
				S163.923,17.68,163.923,17.68l77.07,15.462c0,0,6.214-1.02,42.959-3.005c36.745-1.985,51.686,6.82,76.438,1.92
				s93.874,14.973,121.447,10.484s64.901-19.333,83.382-18.609s45.179-9.439-13.288-6.253s-92.269-13.627-119.218-4.811
				c-26.949,8.816-54.766-8.183-31.349-7.805c23.417,0.378,53.315-8.695,85.996-3.402s72.545,13.847,85.833,11.207
				c13.288-2.641,22.591-16.499,52.488-11.207s70.151-2.019,84.573,0s2.217,8.937-27.558,11.207s-73.231-2.197-57.014,4.811
				s22.111,14.363,41.949,12.458s83.656,0,83.656,0v32.545c0,0-83.569-3.829-113.557-2.773c-29.988,1.056-37.961-5.966-69.852,0
				s-18.603,14.15,2.658,12.513s98.093-1.212,76.951,0.212c-21.142,1.425-71.636,13.704-111.5,10.019s-118.831-0.411-91.307-6.958
				c27.524-6.547,81.453-13.57,45.187-15.787s-75.178-3.285-104.89,0c-29.713,3.285-66.038,9.456-101.023,8.53
				c-34.986-0.926-58.904-3.984-80.165,0c-21.261,3.984-39.864,0.71-21.261,3.984c18.603,3.273,68.855,9.006,57.017,10.232
				c-11.838,1.225-80.935,2.048-94.223,0c-13.288-2.048,5.315-17.254,26.576-22.745s-50.919,8.53-82.456,8.53
				s-78.668-2.347-63.217,0c15.451,2.347,53.625,4.147,42.907,7.257c-10.718,3.11-70.415,6.958-70.415,6.958V55.65
				c0,0,26.039-4.45,45.129-4.477s32.378-3.816,50.982-6.832c18.603-3.015-13.159-1.736-25.696-2.391s-26.467,8.808-42.907,0
				s-27.508-8.808-27.508-8.808V12.869l88.59,4.811c0,0-65.902-14.764-61.082-16.018S106.785,0.683,106.785,0.683z"/>
			<path style="fill:#F7E5C6;" d="M106.785,78.08c0,0,51.823-1.04,97.002,0.979c45.179,2.019,167.747-2.019,148.984,0
				c-18.762,2.019-58.626,9.328-87.86,9.765c-29.233,0.438-100.988,6.253-100.988,6.253l77.07,15.462c0,0,6.214-1.02,42.959-3.005
				c36.745-1.985,51.686,6.82,76.438,1.92s93.874,14.973,121.447,10.484c27.572-4.489,64.901-19.333,83.382-18.609
				c18.481,0.724,45.179-9.439-13.288-6.253c-58.467,3.187-92.269-13.627-119.218-4.811c-26.949,8.816-54.766-8.183-31.349-7.805
				c23.417,0.378,53.315-8.695,85.996-3.402s72.545,13.847,85.833,11.207c13.288-2.641,22.591-16.499,52.488-11.207
				s70.151-2.019,84.573,0c14.421,2.019,2.217,8.937-27.558,11.207s-73.231-2.197-57.014,4.811
				c16.217,7.008,22.111,14.363,41.949,12.458s83.656,0,83.656,0v32.545c0,0-83.569-3.829-113.557-2.773s-37.961-5.966-69.852,0
				s-18.603,14.15,2.658,12.513c21.261-1.637,98.093-1.212,76.951,0.212c-21.142,1.425-71.636,13.704-111.5,10.019
				s-118.831-0.411-91.307-6.958c27.524-6.547,81.453-13.57,45.187-15.787s-75.178-3.285-104.89,0
				c-29.713,3.285-66.038,9.456-101.023,8.53s-58.904-3.984-80.165,0s-39.864,0.71-21.261,3.984s68.855,9.006,57.017,10.232
				c-11.838,1.225-80.935,2.048-94.223,0c-13.288-2.048,5.315-17.254,26.576-22.745s-50.919,8.53-82.456,8.53
				s-78.668-2.347-63.217,0s53.625,4.147,42.907,7.257s-70.415,6.958-70.415,6.958v-27.005c0,0,26.039-4.45,45.129-4.477
				c19.091-0.027,32.378-3.816,50.982-6.832c18.603-3.015-13.159-1.736-25.696-2.391c-12.537-0.654-26.467,8.808-42.907,0
				s-27.508-8.808-27.508-8.808V90.265l88.59,4.811c0,0-65.902-14.764-61.082-16.018S106.785,78.08,106.785,78.08z"/>
		</g>
		<path style="clip-path:url(#SVGID_00000103948519527560891510000014705212796854777779_);fill:#F7E5C6;" d="M752.467,160.441
			c-3.852-5.641-90.645,8.804-123.645,13.699c-33,4.896-30.948,14.16-58.519,20.869c-27.571,6.709-22.921,6.761-48.771,8.077
			c-25.85,1.316-37.71,11.06-45.71,13.005c-8,1.945,275.36,0,275.36,0L752.467,160.441z"/>
		<path style="clip-path:url(#SVGID_00000103948519527560891510000014705212796854777779_);fill:#F7E5C6;" d="M-1.285,41.658
			c0,0,99.879,4.729,125.79,8.951s70.394-2.523,90.007-5.094c19.613-2.571,43.53-6.428,55.489-6.428
			c11.959,0,109.959,2.571,82.771,6.428c-27.188,3.857-31.687,7.591-55.692,5.634c-25.096-2.046-38.746-3.049-50.704-0.54
			c-11.959,2.509-11.379,8.49-6.832,8.77c4.547,0.279,18.498,3.143,44.409,2.354s56.253,1.771,77.12-2.354
			s105.503-1.726,128.794,2.491c23.292,4.217,43.222-0.137,43.222-0.137s39.569-1.659,9.965-6.888
			c-29.603-5.229-45.07-7.847-71.515-9.657c-26.445-1.81-49.952-8.243-44.029-7.815c5.923,0.429,22.382-3.333,39.972-1.283
			c17.59,2.05,5.866-5.477,41.426-2.488c35.56,2.989,29.395-1.955,46.109-1.759c16.714,0.196,24.844,0.198,36.32-1.28
			c11.476-1.478,41.824,2.946,46.39,0s14.534,0.602,4.566-2.946c-9.968-3.548-109.052-2.133-110.462-6.475
			c-1.772-5.456,81.465-10.367,81.465-10.367s48.869,2.867,70.903,4.23S751.285,0,751.285,0v98.702c0,0-20.881,1.759-38.819,0
			s-110.549-0.294-137.007,1.535c-26.458,1.829-45.382-8.642-50.297-1.708c-4.915,6.934-7.141,2.867-20.535,1.926
			c-13.394-0.941-51.455,3.863-43.386-1.753c8.069-5.616,22.851-7.193,43.386-10.513c20.535-3.32,34.898-1.764,64.337-5.388
			c29.439-3.624,14.996-3.814,52.343-2.55s37.241-8.366,37.241-8.366s-43.973-1.641-61.242,0s-42.293-4.487-64.217,0
			c-21.924,4.487-37.178-3.638-65.606,0s-47.282,0.656-58.603,0c-11.321-0.656-60.585-5.773-69.836,0s1.039,6.415-38.985,6.737
			s-72.796-2.249-96.272,0.322s-61.345,9.245-61.345,9.245s14.898,0.246,40.335,0c25.437-0.246,42.253,1.531,56.766,0
			c14.512-1.531,64.181,2.326,70.239,4.897s-99.274,7.375-119.355,5.616s-22.075,1.759-42.006,0s-36.239-0.921-53.596,0
			s-96.111,0-96.111,0V41.658z"/>
		<path style="clip-path:url(#SVGID_00000103948519527560891510000014705212796854777779_);fill:#F7E5C6;" d="M-1.285,114.572
			c0,0,63.986,7.333,105.672,5.732s7.153,56.977,62.973,55.467c55.82-1.51,99.895,2.326,128.494,0.081
			c28.599-2.244-3.634,15.231-41.897,9.223s-105.161,13.218-113.712,10.094c-8.551-3.124,39.578-2.23,65.396,0
			c25.818,2.23,82.386,1.706,108.099,0.346c25.713-1.36,23.03-4.739,39.37-0.346c16.341,4.393,13.341,2.973,34.34,1.52
			c20.999-1.453,36.824-0.506,58.91-1.52c22.086-1.014-96.574,13.993-78.492,12.978c18.082-1.015,48.867-2.131,63.473,0.049
			c14.606,2.18-99.088,5.959-127.701,10.285c-28.613,4.326-303.89,22.405-303.765,18.505S-1.285,114.572-1.285,114.572z"/>
		
			<rect y="324.055" style="clip-path:url(#SVGID_00000103948519527560891510000014705212796854777779_);fill:#A57A7D;" width="750.751" height="85.562"/>
		<g style="clip-path:url(#SVGID_00000103948519527560891510000014705212796854777779_);">
			<path style="fill:#F7E5C6;" d="M106.785,325.971c0,0,51.823-0.282,97.002,0.265s167.747-0.547,148.984,0
				s-58.626,2.529-87.86,2.647c-29.233,0.119-100.988,1.695-100.988,1.695l77.07,4.192c0,0,6.214-0.276,42.959-0.815
				c36.745-0.538,51.686,1.849,76.438,0.52c24.753-1.328,93.874,4.059,121.447,2.842s64.901-5.241,83.382-5.045
				c18.481,0.196,45.179-2.559-13.288-1.695c-58.467,0.864-92.269-3.694-119.218-1.304c-26.949,2.39-54.766-2.218-31.349-2.116
				c23.417,0.102,53.315-2.357,85.996-0.922s72.545,3.754,85.833,3.038c13.288-0.716,22.591-4.473,52.488-3.038
				s70.151-0.547,84.573,0s2.217,2.423-27.558,3.038c-29.775,0.615-73.231-0.595-57.014,1.304c16.217,1.9,22.111,3.894,41.949,3.377
				s83.656,0,83.656,0v8.823c0,0-83.569-1.038-113.557-0.752c-29.988,0.286-37.961-1.617-69.852,0
				c-31.891,1.617-18.603,3.836,2.658,3.392s98.093-0.329,76.951,0.057c-21.142,0.386-71.636,3.715-111.5,2.716
				s-118.831-0.112-91.307-1.886c27.524-1.775,81.453-3.679,45.187-4.28c-36.266-0.601-75.178-0.891-104.89,0
				c-29.713,0.891-66.038,2.563-101.023,2.312c-34.986-0.251-58.904-1.08-80.165,0c-21.261,1.08-39.864,0.193-21.261,1.08
				s68.855,2.441,57.017,2.774c-11.838,0.332-80.935,0.555-94.223,0c-13.288-0.555,5.315-4.677,26.576-6.166
				c21.261-1.488-50.919,2.312-82.456,2.312s-78.668-0.636-63.217,0c15.451,0.636,53.625,1.124,42.907,1.967
				s-70.415,1.886-70.415,1.886v-7.321c0,0,26.039-1.206,45.129-1.214c19.091-0.007,32.378-1.035,50.982-1.852
				c18.603-0.817-13.159-0.471-25.696-0.648c-12.537-0.177-26.467,2.388-42.907,0c-16.44-2.388-27.508-2.388-27.508-2.388v-5.496
				l88.59,1.304c0,0-65.902-4.002-61.082-4.342S106.785,325.971,106.785,325.971z"/>
			<path style="fill:#F7E5C6;" d="M106.785,346.952c0,0,51.823-0.282,97.002,0.265s167.747-0.547,148.984,0
				s-58.626,2.529-87.86,2.647c-29.233,0.119-100.988,1.695-100.988,1.695l77.07,4.192c0,0,6.214-0.276,42.959-0.815
				c36.745-0.538,51.686,1.849,76.438,0.52s93.874,4.059,121.447,2.842c27.572-1.217,64.901-5.241,83.382-5.045
				c18.481,0.196,45.179-2.559-13.288-1.695c-58.467,0.864-92.269-3.694-119.218-1.304c-26.949,2.39-54.766-2.218-31.349-2.116
				c23.417,0.103,53.315-2.357,85.996-0.922s72.545,3.754,85.833,3.038c13.288-0.716,22.591-4.473,52.488-3.038
				s70.151-0.547,84.573,0s2.217,2.423-27.558,3.038c-29.775,0.615-73.231-0.595-57.014,1.304c16.217,1.9,22.111,3.894,41.949,3.377
				s83.656,0,83.656,0v8.823c0,0-83.569-1.038-113.557-0.752c-29.988,0.286-37.961-1.617-69.852,0
				c-31.891,1.617-18.603,3.836,2.658,3.392s98.093-0.329,76.951,0.058c-21.142,0.386-71.636,3.715-111.5,2.716
				c-39.864-0.999-118.831-0.112-91.307-1.886c27.524-1.775,81.453-3.679,45.187-4.28c-36.266-0.601-75.178-0.891-104.89,0
				c-29.713,0.891-66.038,2.563-101.023,2.312s-58.904-1.08-80.165,0s-39.864,0.193-21.261,1.08s68.855,2.442,57.017,2.774
				c-11.838,0.332-80.935,0.555-94.223,0c-13.288-0.555,5.315-4.677,26.576-6.166c21.261-1.488-50.919,2.312-82.456,2.312
				s-78.668-0.636-63.217,0s53.625,1.124,42.907,1.967s-70.415,1.886-70.415,1.886v-7.321c0,0,26.039-1.206,45.129-1.214
				s32.378-1.034,50.982-1.852s-13.159-0.471-25.696-0.648s-26.467,2.388-42.907,0s-27.508-2.388-27.508-2.388v-5.496l88.59,1.304
				c0,0-65.902-4.002-61.082-4.342S106.785,346.952,106.785,346.952z"/>
		</g>
		<g style="clip-path:url(#SVGID_00000103948519527560891510000014705212796854777779_);">
			<polygon style="fill:#616B50;" points="0,200.648 126.36,80.055 191.36,123.055 219.36,116.055 446.36,324.055 0,324.055 			"/>
			<polygon style="fill:#616B50;" points="750,200.648 643.36,123.055 564.36,135.055 530.64,116.055 303.64,324.055 750,324.055 
							"/>
			<polygon style="fill:#BEA46A;" points="219.36,116.055 235.693,148.388 230.36,148.388 219.36,155.055 223.18,173.055 
				215.693,173.055 215.693,179.722 201.693,182.388 215.693,208.148 207.693,208.148 211.693,221.647 231.027,243.055 
				235.693,235.055 255.693,247.055 264.36,247.055 275.027,240.388 279.027,229.722 288.36,237.722 288.36,231.722 303.64,234.388 
				328.36,268.388 333.693,259.055 344.36,261.722 350.36,253.055 369.568,263.645 375,258.668 			"/>
			<polygon style="fill:#BEA46A;" points="126.36,80.055 135.027,91.055 130.693,95.055 126.36,101.055 130.693,113.055 
				126.36,116.055 122.36,121.722 125.693,137.722 135.027,157.055 138.36,151.055 158.36,165.055 168.36,159.722 177.027,165.055 
				184.36,151.055 187.693,133.722 201.693,141.722 212.36,136.388 			"/>
			<polygon style="fill:#46524B;" points="69.916,133.923 85.027,151.722 89.693,151.722 104.36,173.722 98.36,176.388 
				116.36,185.055 131.693,192.222 131.693,197.722 141.693,208.148 162.75,210.388 167.36,208.148 178.36,220.055 189.693,231.055 
				183.027,234.388 183.027,239.722 212.36,258.138 231.693,285.722 288.347,302.388 322.36,324.055 0,324.055 0,200.648 			"/>
			<path style="fill:#BEA46A;" d="M643.36,123.055l8,31.114l-16,10.886v22l-6,5.167c0,0-16,9.833-8,9.833s23,9.224,23,9.224
				l16,17.71l-8,21.011l19,10.055h22l12,15c0,0,9-19,12-19s20,7,20,7l5-13.055c0,0,7.64,14.055,7.64,10.055s0-59.407,0-59.407
				L643.36,123.055z"/>
			<polygon style="fill:#BEA46A;" points="530.64,116.055 536.36,133.923 520.36,148.055 505.36,177.055 495.36,192.222 
				515.86,202.055 515.86,211.279 526.82,228.989 509.36,235.055 526.82,250 559.36,260.055 568.36,228.989 586.36,237.055 
				600.36,239.055 564.36,135.055 			"/>
			<polygon style="fill:#46524B;" points="447.516,192.222 464.36,220.055 479.36,220.055 484.36,250 501.36,260.055 
				526.82,275.055 559.36,268.388 581.36,283.055 592.36,289.055 622.36,289.055 635.36,289.055 650.36,307.514 684.56,302.055 
				698.36,312.055 729.36,302.055 750,307.514 750,324.055 303.64,324.055 			"/>
			<g>
				<polygon style="fill:#364145;" points="26.806,318.93 39.996,318.93 33.401,266.669 				"/>
				<polygon style="fill:#364145;" points="38.247,318.93 51.437,318.93 44.842,266.669 				"/>
				<polygon style="fill:#364145;" points="115.64,318.749 128.83,318.749 122.235,266.488 				"/>
				<polygon style="fill:#364145;" points="133.65,318.749 146.839,318.749 140.245,266.488 				"/>
				<polygon style="fill:#364145;" points="199.045,323.93 212.235,323.93 205.64,271.669 				"/>
				<polygon style="fill:#364145;" points="209.865,318.749 223.055,318.749 216.46,266.488 				"/>
				<polygon style="fill:#364145;" points="223.055,323.93 236.245,323.93 229.65,271.669 				"/>
				<polygon style="fill:#364145;" points="16.727,318.749 29.917,318.749 23.322,266.488 				"/>
				<path style="fill:#364145;" d="M-0.125,323.93h750.751c0,0,3.969-11,1.609-11s-21,0-21,0h-18.201l-19.799,5.5
					c0,0,3.4-5.5-8.8-5.5s-20.2,2-23.2,0s-19,0-25,0s-12.48-2.778-17.24-0.889s-18.76-0.658-18.76-0.658l-18-6.453l-19,5l-15.5,4.5
					l-25.5-4.5l-32,4.5l-29-9.5c0,0-9,9-15,9.5s-12.937-0.5-17.969,0s-23.031,0-23.031,0l-23-9.5l-13,9.5c0,0-5.136-2.5-15.068,0
					s-14.932,0-14.932,0h-17h-41l-19-9.5l-31.567,5l-12.433-5h-26c0,0-41,13-45,9.5s-18-9.5-18-9.5l-23.632,9.5H87.235h-18l-15-9.5
					h-14h-13h-13h-14.36V323.93z"/>
				<polygon style="fill:#364145;" points="312.475,323.93 325.665,323.93 319.07,271.669 				"/>
				<polygon style="fill:#364145;" points="325.665,323.93 338.855,323.93 332.26,271.669 				"/>
				<polygon style="fill:#364145;" points="439.64,318.749 452.83,318.749 446.235,266.488 				"/>
				<polygon style="fill:#364145;" points="423.666,318.749 436.856,318.749 430.261,266.488 				"/>
				<polygon style="fill:#364145;" points="368.405,318.749 381.595,318.749 375,266.488 				"/>
				<polygon style="fill:#364145;" points="174.13,318.749 187.32,318.749 180.725,266.488 				"/>
				<polygon style="fill:#364145;" points="413.873,323.93 427.063,323.93 420.468,271.669 				"/>
				<polygon style="fill:#364145;" points="520.1,323.93 533.29,323.93 526.695,271.669 				"/>
				<polygon style="fill:#364145;" points="533.64,323.93 546.83,323.93 540.235,271.669 				"/>
				<polygon style="fill:#364145;" points="623.64,314.43 636.83,314.43 630.235,262.169 				"/>
				<polygon style="fill:#364145;" points="692.307,318.749 705.497,318.749 698.902,266.488 				"/>
				<polygon style="fill:#364145;" points="705.497,318.749 718.686,318.749 712.091,266.488 				"/>
				<polygon style="fill:#364145;" points="639.497,323.93 652.686,323.93 646.091,271.669 				"/>
				<polygon style="fill:#364145;" points="573.497,318.749 586.686,318.749 580.091,266.488 				"/>
				<polygon style="fill:#364145;" points="452.83,323.93 466.02,323.93 459.425,271.669 				"/>
				<polygon style="fill:#364145;" points="718.811,318.874 732.001,318.874 725.406,266.613 				"/>
			</g>
		</g>
		<g style="clip-path:url(#SVGID_00000103948519527560891510000014705212796854777779_);">
			<path style="fill:#616B50;" d="M-1.64,380.136h50.301l24.954,3.033l33.018-1.521l26.474,1.521l26.474-1.521l36.737,0
				l23.827,2.313l30.033,6.621h36.333l48.297-8.935l27.828,3.711c0,0,29.384,5.891,34.66,5.223s29.698-8.935,29.698-8.935
				s26.735,4.347,31.274,3.738c4.539-0.609,22.61,0,22.61,0l53.16-5.25l89.098,5.25l50.918-6.39h76.697v46.615H-1.64V380.136z"/>
			<path style="fill:#616B50;" d="M359.603,407.91c-2.662-1.325-5.557-4.974-6.832-6.706c2.262,2.255,8.324,3.179,8.324,3.179
				c-1.401-1.246-3.92-3.668-5.799-5.493c1.947,1.128,4.308,1.769,4.308,1.769c-2.983-2.156-7.457-10.779-7.457-10.779
				c2.61,4.116,6.525,4.312,6.525,4.312c-2.955-2.33-6.121-7.488-7.309-9.529c1.853,2.438,6.376,2.277,6.376,2.277
				c-2.424-1.503-8.094-9.407-8.094-9.407c1.787,2.156,6.789,4.116,6.789,4.116c-2.132-1.661-6.204-7.919-7.562-10.055
				c1.629,1.813,6.479,3.196,6.479,3.196c-3.287-2.352-6.658-8.649-6.658-8.649c1.303,1.764,5.429,2.77,5.429,2.77
				c-2.093-1.96-6.488-8.035-6.488-8.035l4.471,2.548c-5.365-5.88-6.483-11.759-6.483-11.759s-1.119,5.88-6.483,11.759l4.471-2.548
				c0,0-4.396,6.076-6.488,8.035c0,0,4.125-1.006,5.429-2.77c0,0-3.371,6.297-6.658,8.649c0,0,4.85-1.383,6.479-3.196
				c-1.358,2.137-5.43,8.394-7.562,10.055c0,0,5.002-1.96,6.789-4.116c0,0-5.67,7.904-8.094,9.407c0,0,4.524,0.16,6.376-2.277
				c-1.187,2.041-4.353,7.199-7.309,9.529c0,0,3.915-0.196,6.525-4.312c0,0-4.474,8.623-7.457,10.779c0,0,2.361-0.641,4.308-1.769
				c-1.879,1.824-4.399,4.247-5.799,5.493c0,0,6.062-0.924,8.324-3.179c-1.275,1.732-4.171,5.381-6.832,6.706
				c0,0,3.404,0.196,6.27-1.96c0,0-3.846,3.724-7.761,5.684h15.474h15.474c-3.915-1.96-7.761-5.684-7.761-5.684
				C356.199,408.106,359.603,407.91,359.603,407.91z"/>
			<path style="fill:#616B50;" d="M377.501,397.455c-2.662-1.325-5.557-4.974-6.832-6.706c2.262,2.255,8.324,3.179,8.324,3.179
				c-1.401-1.246-3.92-3.668-5.799-5.493c1.947,1.128,4.308,1.769,4.308,1.769c-2.983-2.156-7.457-10.779-7.457-10.779
				c2.61,4.116,6.525,4.312,6.525,4.312c-2.955-2.33-6.121-7.488-7.309-9.529c1.853,2.438,6.376,2.277,6.376,2.277
				c-2.424-1.503-8.094-9.407-8.094-9.407c1.787,2.156,6.789,4.116,6.789,4.116c-2.132-1.661-6.204-7.919-7.562-10.055
				c1.629,1.813,6.479,3.196,6.479,3.196c-3.287-2.352-6.658-8.649-6.658-8.649c1.303,1.764,5.429,2.77,5.429,2.77
				c-2.093-1.96-6.488-8.035-6.488-8.035l4.471,2.548c-5.365-5.88-6.483-11.759-6.483-11.759s-1.119,5.88-6.483,11.759l4.471-2.548
				c0,0-4.396,6.076-6.488,8.035c0,0,4.125-1.006,5.429-2.77c0,0-3.371,6.297-6.658,8.649c0,0,4.85-1.383,6.479-3.196
				c-1.358,2.137-5.43,8.394-7.562,10.055c0,0,5.002-1.96,6.789-4.116c0,0-5.67,7.904-8.094,9.407c0,0,4.524,0.16,6.376-2.277
				c-1.187,2.041-4.353,7.199-7.309,9.529c0,0,3.915-0.196,6.525-4.312c0,0-4.474,8.623-7.457,10.779c0,0,2.361-0.641,4.308-1.769
				c-1.879,1.824-4.399,4.247-5.799,5.493c0,0,6.062-0.924,8.324-3.179c-1.275,1.732-4.171,5.381-6.832,6.706
				c0,0,3.404,0.196,6.27-1.96c0,0-3.846,3.724-7.761,5.684h15.474h15.474c-3.915-1.96-7.761-5.684-7.761-5.684
				C374.097,397.651,377.501,397.455,377.501,397.455z"/>
			<path style="fill:#616B50;" d="M235.068,397.455c-2.662-1.325-5.557-4.974-6.832-6.706c2.262,2.255,8.324,3.179,8.324,3.179
				c-1.401-1.246-3.92-3.668-5.799-5.493c1.947,1.128,4.308,1.769,4.308,1.769c-2.983-2.156-7.457-10.779-7.457-10.779
				c2.61,4.116,6.525,4.312,6.525,4.312c-2.955-2.33-6.121-7.488-7.308-9.529c1.853,2.438,6.376,2.277,6.376,2.277
				c-2.424-1.503-8.094-9.407-8.094-9.407c1.787,2.156,6.789,4.116,6.789,4.116c-2.132-1.661-6.204-7.919-7.562-10.055
				c1.629,1.813,6.479,3.196,6.479,3.196c-3.287-2.352-6.658-8.649-6.658-8.649c1.303,1.764,5.429,2.77,5.429,2.77
				c-2.093-1.96-6.488-8.035-6.488-8.035l4.471,2.548c-5.365-5.88-6.483-11.759-6.483-11.759s-1.119,5.88-6.483,11.759l4.471-2.548
				c0,0-4.396,6.076-6.488,8.035c0,0,4.125-1.006,5.429-2.77c0,0-3.371,6.297-6.658,8.649c0,0,4.85-1.383,6.479-3.196
				c-1.358,2.137-5.43,8.394-7.562,10.055c0,0,5.002-1.96,6.789-4.116c0,0-5.67,7.904-8.094,9.407c0,0,4.524,0.16,6.376-2.277
				c-1.187,2.041-4.353,7.199-7.308,9.529c0,0,3.915-0.196,6.525-4.312c0,0-4.474,8.623-7.457,10.779c0,0,2.361-0.641,4.308-1.769
				c-1.879,1.824-4.399,4.247-5.799,5.493c0,0,6.062-0.924,8.324-3.179c-1.275,1.732-4.171,5.381-6.832,6.706
				c0,0,3.404,0.196,6.27-1.96c0,0-3.846,3.724-7.761,5.684h15.474h15.474c-3.915-1.96-7.761-5.684-7.761-5.684
				C231.664,397.651,235.068,397.455,235.068,397.455z"/>
			<path style="fill:#616B50;" d="M522.434,391.902c-2.662-1.325-5.557-4.974-6.832-6.706c2.262,2.255,8.324,3.179,8.324,3.179
				c-1.401-1.246-3.92-3.668-5.799-5.493c1.947,1.128,4.308,1.769,4.308,1.769c-2.983-2.156-7.457-10.779-7.457-10.779
				c2.61,4.116,6.525,4.312,6.525,4.312c-2.955-2.33-6.121-7.488-7.308-9.529c1.853,2.438,6.376,2.277,6.376,2.277
				c-2.424-1.503-8.094-9.407-8.094-9.407c1.787,2.156,6.789,4.116,6.789,4.116c-2.132-1.661-6.204-7.919-7.562-10.055
				c1.629,1.813,6.479,3.196,6.479,3.196c-3.287-2.352-6.658-8.649-6.658-8.649c1.303,1.764,5.429,2.77,5.429,2.77
				c-2.093-1.96-6.488-8.035-6.488-8.035l4.471,2.548c-5.365-5.88-6.483-11.759-6.483-11.759s-1.119,5.88-6.483,11.759l4.471-2.548
				c0,0-4.396,6.076-6.488,8.035c0,0,4.125-1.006,5.429-2.77c0,0-3.371,6.297-6.658,8.649c0,0,4.85-1.383,6.479-3.196
				c-1.358,2.137-5.43,8.394-7.562,10.055c0,0,5.002-1.96,6.789-4.116c0,0-5.67,7.904-8.094,9.407c0,0,4.524,0.16,6.376-2.277
				c-1.187,2.041-4.353,7.199-7.308,9.529c0,0,3.915-0.196,6.525-4.312c0,0-4.474,8.623-7.457,10.779c0,0,2.361-0.641,4.308-1.769
				c-1.879,1.824-4.399,4.247-5.799,5.493c0,0,6.062-0.924,8.324-3.179c-1.275,1.732-4.171,5.381-6.832,6.706
				c0,0,3.404,0.196,6.27-1.96c0,0-3.846,3.724-7.761,5.684h15.474h15.474c-3.915-1.96-7.761-5.684-7.761-5.684
				C519.03,392.098,522.434,391.902,522.434,391.902z"/>
		</g>
		<g style="clip-path:url(#SVGID_00000103948519527560891510000014705212796854777779_);">
			<path style="fill:#3D594D;" d="M-1.665,399.116h50.303l24.955,6.729l33.019-3.375l26.475,3.375l26.475-3.375l36.738,0
				l23.828,5.132l30.034,14.689h36.334l48.298-19.821l27.829,8.233c0,0,29.385,13.069,34.661,11.587
				c5.277-1.481,29.699-19.821,29.699-19.821s26.736,9.643,31.275,8.292c4.539-1.351,22.611,0,22.611,0l53.161-11.646l89.101,11.646
				l50.919-14.175h76.7V500H-1.665V399.116z"/>
			<path style="fill:#3D594D;" d="M458.028,437.248c-5.323-2.651-11.114-9.948-13.665-13.413c4.524,4.509,16.648,6.357,16.648,6.357
				c-2.801-2.492-7.841-7.337-11.599-10.986c3.895,2.255,8.616,3.538,8.616,3.538c-5.966-4.312-14.915-21.558-14.915-21.558
				c5.22,8.231,13.051,8.623,13.051,8.623c-5.91-4.66-12.243-14.975-14.617-19.058c3.706,4.875,12.753,4.555,12.753,4.555
				c-4.847-3.007-16.188-18.814-16.188-18.814c3.574,4.312,13.578,8.231,13.578,8.231c-4.264-3.322-12.408-15.837-15.125-20.111
				c3.259,3.626,12.959,6.392,12.959,6.392c-6.574-4.704-13.317-17.298-13.317-17.298c2.606,3.528,10.858,5.539,10.858,5.539
				c-4.186-3.92-12.977-16.071-12.977-16.071l8.942,5.096c-10.729-11.759-12.967-23.518-12.967-23.518s-2.237,11.759-12.967,23.518
				l8.942-5.096c0,0-8.791,12.151-12.977,16.071c0,0,8.251-2.011,10.858-5.539c0,0-6.743,12.594-13.317,17.298
				c0,0,9.7-2.766,12.959-6.392c-2.717,4.273-10.861,16.789-15.125,20.111c0,0,10.004-3.92,13.578-8.231
				c0,0-11.341,15.808-16.188,18.814c0,0,9.047,0.32,12.753-4.555c-2.375,4.083-8.707,14.398-14.617,19.058
				c0,0,7.83-0.392,13.051-8.623c0,0-8.949,17.247-14.915,21.558c0,0,4.721-1.283,8.616-3.538
				c-3.758,3.649-8.798,8.494-11.599,10.986c0,0,12.124-1.848,16.648-6.357c-2.551,3.465-8.342,10.762-13.665,13.413
				c0,0,6.809,0.392,12.54-3.92c0,0-7.692,7.447-15.523,11.367h30.949h30.949c-7.83-3.92-15.523-11.367-15.523-11.367
				C451.219,437.64,458.028,437.248,458.028,437.248z"/>
			<path style="fill:#3D594D;" d="M497.309,418.164c-5.323-2.651-11.114-9.948-13.665-13.413c4.524,4.509,16.648,6.357,16.648,6.357
				c-2.801-2.492-7.841-7.337-11.599-10.986c3.895,2.255,8.616,3.538,8.616,3.538c-5.966-4.312-14.915-21.558-14.915-21.558
				c5.22,8.231,13.051,8.623,13.051,8.623c-5.91-4.66-12.243-14.975-14.617-19.058c3.706,4.875,12.753,4.555,12.753,4.555
				c-4.847-3.007-16.188-18.814-16.188-18.814c3.574,4.312,13.578,8.231,13.578,8.231c-4.264-3.322-12.408-15.837-15.125-20.111
				c3.259,3.626,12.959,6.392,12.959,6.392c-6.574-4.704-13.317-17.298-13.317-17.298c2.606,3.528,10.858,5.539,10.858,5.539
				c-4.186-3.92-12.977-16.071-12.977-16.071l8.942,5.096c-10.729-11.759-12.967-23.518-12.967-23.518s-2.237,11.759-12.967,23.518
				l8.942-5.096c0,0-8.791,12.151-12.977,16.071c0,0,8.251-2.011,10.858-5.539c0,0-6.743,12.594-13.317,17.298
				c0,0,9.7-2.766,12.959-6.392c-2.717,4.273-10.861,16.789-15.125,20.111c0,0,10.004-3.92,13.578-8.231
				c0,0-11.341,15.808-16.188,18.814c0,0,9.047,0.32,12.753-4.555c-2.375,4.083-8.707,14.398-14.617,19.058
				c0,0,7.83-0.392,13.051-8.623c0,0-8.949,17.247-14.915,21.558c0,0,4.721-1.283,8.616-3.538
				c-3.758,3.649-8.798,8.494-11.599,10.986c0,0,12.124-1.848,16.648-6.357c-2.551,3.465-8.342,10.762-13.665,13.413
				c0,0,6.809,0.392,12.54-3.92c0,0-7.692,7.447-15.523,11.367h30.949h30.949c-7.83-3.92-15.523-11.367-15.523-11.367
				C490.5,418.555,497.309,418.164,497.309,418.164z"/>
			<path style="fill:#3D594D;" d="M425.25,453.703c-5.323-2.651-11.114-9.948-13.665-13.413c4.524,4.509,16.648,6.357,16.648,6.357
				c-2.801-2.492-7.841-7.337-11.599-10.986c3.895,2.255,8.616,3.538,8.616,3.538c-5.966-4.312-14.915-21.558-14.915-21.558
				c5.22,8.231,13.051,8.623,13.051,8.623c-5.91-4.66-12.243-14.975-14.617-19.058c3.706,4.875,12.753,4.555,12.753,4.555
				c-4.847-3.007-16.188-18.814-16.188-18.814c3.574,4.312,13.578,8.231,13.578,8.231c-4.264-3.322-12.408-15.837-15.125-20.111
				c3.259,3.626,12.959,6.392,12.959,6.392c-6.574-4.704-13.317-17.298-13.317-17.298c2.606,3.528,10.858,5.539,10.858,5.539
				c-4.186-3.92-12.977-16.071-12.977-16.071l8.942,5.096c-10.729-11.759-12.967-23.518-12.967-23.518s-2.237,11.759-12.967,23.518
				l8.942-5.096c0,0-8.791,12.151-12.977,16.071c0,0,8.251-2.011,10.858-5.539c0,0-6.743,12.594-13.317,17.298
				c0,0,9.7-2.766,12.959-6.392c-2.717,4.273-10.861,16.789-15.125,20.111c0,0,10.004-3.92,13.578-8.231
				c0,0-11.341,15.808-16.188,18.814c0,0,9.047,0.32,12.753-4.555c-2.375,4.083-8.707,14.398-14.617,19.058
				c0,0,7.83-0.392,13.051-8.623c0,0-8.949,17.247-14.915,21.558c0,0,4.721-1.283,8.616-3.538
				c-3.758,3.649-8.798,8.494-11.599,10.986c0,0,12.124-1.848,16.648-6.357c-2.551,3.465-8.342,10.762-13.665,13.413
				c0,0,6.809,0.392,12.54-3.92c0,0-7.692,7.447-15.523,11.367h30.949h30.949c-7.83-3.92-15.523-11.367-15.523-11.367
				C418.441,454.095,425.25,453.703,425.25,453.703z"/>
			<path style="fill:#3D594D;" d="M183.545,418.164c-5.323-2.651-11.114-9.948-13.665-13.413c4.524,4.509,16.648,6.357,16.648,6.357
				c-2.801-2.492-7.841-7.337-11.599-10.986c3.895,2.255,8.616,3.538,8.616,3.538c-5.966-4.312-14.915-21.558-14.915-21.558
				c5.22,8.231,13.051,8.623,13.051,8.623c-5.91-4.66-12.243-14.975-14.617-19.058c3.706,4.875,12.753,4.555,12.753,4.555
				c-4.847-3.007-16.188-18.814-16.188-18.814c3.574,4.312,13.578,8.231,13.578,8.231c-4.264-3.322-12.408-15.837-15.125-20.111
				c3.259,3.626,12.959,6.392,12.959,6.392c-6.574-4.704-13.317-17.298-13.317-17.298c2.606,3.528,10.858,5.539,10.858,5.539
				c-4.186-3.92-12.977-16.071-12.977-16.071l8.942,5.096c-10.729-11.759-12.967-23.518-12.967-23.518s-2.237,11.759-12.967,23.518
				l8.942-5.096c0,0-8.791,12.151-12.977,16.071c0,0,8.251-2.011,10.858-5.539c0,0-6.743,12.594-13.317,17.298
				c0,0,9.7-2.766,12.959-6.392c-2.717,4.273-10.861,16.789-15.125,20.111c0,0,10.004-3.92,13.578-8.231
				c0,0-11.341,15.808-16.188,18.814c0,0,9.047,0.32,12.753-4.555c-2.375,4.083-8.707,14.398-14.617,19.058
				c0,0,7.83-0.392,13.051-8.623c0,0-8.949,17.247-14.915,21.558c0,0,4.721-1.283,8.616-3.538
				c-3.758,3.649-8.798,8.494-11.599,10.986c0,0,12.124-1.848,16.648-6.357c-2.551,3.465-8.342,10.762-13.665,13.413
				c0,0,6.809,0.392,12.54-3.92c0,0-7.692,7.447-15.523,11.367h30.949h30.949c-7.83-3.92-15.523-11.367-15.523-11.367
				C176.736,418.555,183.545,418.164,183.545,418.164z"/>
			<path style="fill:#3D594D;" d="M89.444,418.164c-5.323-2.651-11.114-9.948-13.665-13.413c4.524,4.509,16.648,6.357,16.648,6.357
				c-2.801-2.492-7.841-7.337-11.599-10.986c3.895,2.255,8.616,3.538,8.616,3.538c-5.966-4.312-14.915-21.558-14.915-21.558
				c5.22,8.231,13.051,8.623,13.051,8.623c-5.91-4.66-12.243-14.975-14.617-19.058c3.706,4.875,12.753,4.555,12.753,4.555
				c-4.847-3.007-16.188-18.814-16.188-18.814c3.574,4.312,13.578,8.231,13.578,8.231c-4.264-3.322-12.408-15.837-15.125-20.111
				c3.259,3.626,12.959,6.392,12.959,6.392c-6.574-4.704-13.317-17.298-13.317-17.298c2.606,3.528,10.858,5.539,10.858,5.539
				c-4.186-3.92-12.977-16.071-12.977-16.071l8.942,5.096c-10.729-11.759-12.967-23.518-12.967-23.518s-2.237,11.759-12.967,23.518
				l8.942-5.096c0,0-8.791,12.151-12.977,16.071c0,0,8.251-2.011,10.858-5.539c0,0-6.743,12.594-13.317,17.298
				c0,0,9.7-2.766,12.959-6.392c-2.717,4.273-10.861,16.789-15.125,20.111c0,0,10.004-3.92,13.578-8.231
				c0,0-11.341,15.808-16.188,18.814c0,0,9.047,0.32,12.753-4.555c-2.375,4.083-8.707,14.398-14.617,19.058
				c0,0,7.83-0.392,13.051-8.623c0,0-8.949,17.247-14.915,21.558c0,0,4.721-1.283,8.616-3.538
				c-3.758,3.649-8.798,8.494-11.599,10.986c0,0,12.124-1.848,16.648-6.357c-2.551,3.465-8.342,10.762-13.665,13.413
				c0,0,6.809,0.392,12.54-3.92c0,0-7.692,7.447-15.523,11.367h30.949h30.949c-7.83-3.92-15.523-11.367-15.523-11.367
				C82.635,418.555,89.444,418.164,89.444,418.164z"/>
			<path style="fill:#3D594D;" d="M291.05,437.9c-5.323-2.651-11.114-9.948-13.665-13.413c4.524,4.509,16.648,6.357,16.648,6.357
				c-2.801-2.492-7.841-7.337-11.599-10.986c3.895,2.255,8.616,3.538,8.616,3.538c-5.966-4.312-14.915-21.558-14.915-21.558
				c5.22,8.231,13.051,8.623,13.051,8.623c-5.91-4.66-12.243-14.975-14.617-19.058c3.706,4.875,12.753,4.555,12.753,4.555
				c-4.847-3.007-16.188-18.815-16.188-18.815c3.574,4.312,13.578,8.231,13.578,8.231c-4.264-3.322-12.408-15.837-15.125-20.111
				c3.259,3.626,12.959,6.392,12.959,6.392c-6.574-4.704-13.317-17.298-13.317-17.298c2.606,3.528,10.858,5.539,10.858,5.539
				c-4.186-3.92-12.977-16.071-12.977-16.071l8.942,5.096c-10.729-11.759-12.967-23.518-12.967-23.518s-2.237,11.759-12.967,23.518
				l8.942-5.096c0,0-8.791,12.151-12.977,16.071c0,0,8.251-2.011,10.858-5.539c0,0-6.743,12.594-13.317,17.298
				c0,0,9.7-2.766,12.959-6.392c-2.717,4.273-10.861,16.789-15.125,20.111c0,0,10.004-3.92,13.578-8.231
				c0,0-11.341,15.808-16.188,18.815c0,0,9.047,0.32,12.753-4.555c-2.375,4.083-8.707,14.398-14.617,19.058
				c0,0,7.83-0.392,13.051-8.623c0,0-8.949,17.247-14.915,21.558c0,0,4.721-1.283,8.616-3.538
				c-3.758,3.649-8.798,8.494-11.599,10.986c0,0,12.124-1.848,16.648-6.357c-2.551,3.465-8.342,10.762-13.665,13.413
				c0,0,6.809,0.392,12.54-3.92c0,0-7.692,7.447-15.523,11.367h30.949h30.949c-7.83-3.92-15.523-11.367-15.523-11.367
				C284.241,438.292,291.05,437.9,291.05,437.9z"/>
			<path style="fill:#3D594D;" d="M567.358,406.219c-5.323-2.651-11.114-9.948-13.665-13.413c4.524,4.509,16.648,6.357,16.648,6.357
				c-2.801-2.492-7.841-7.337-11.599-10.986c3.895,2.255,8.616,3.538,8.616,3.538c-5.966-4.312-14.915-21.558-14.915-21.558
				c5.22,8.231,13.051,8.623,13.051,8.623c-5.91-4.66-12.243-14.975-14.617-19.058c3.706,4.875,12.753,4.555,12.753,4.555
				c-4.847-3.007-16.188-18.815-16.188-18.815c3.574,4.312,13.578,8.231,13.578,8.231c-4.264-3.322-12.408-15.837-15.125-20.111
				c3.259,3.626,12.959,6.392,12.959,6.392c-6.574-4.704-13.317-17.298-13.317-17.298c2.606,3.528,10.858,5.539,10.858,5.539
				c-4.186-3.92-12.977-16.071-12.977-16.071l8.942,5.096c-10.729-11.759-12.967-23.518-12.967-23.518s-2.237,11.759-12.967,23.518
				l8.942-5.096c0,0-8.791,12.151-12.977,16.071c0,0,8.251-2.011,10.858-5.539c0,0-6.743,12.594-13.317,17.298
				c0,0,9.7-2.766,12.959-6.392c-2.717,4.273-10.861,16.789-15.125,20.111c0,0,10.004-3.92,13.578-8.231
				c0,0-11.341,15.808-16.188,18.815c0,0,9.047,0.32,12.753-4.555c-2.375,4.083-8.707,14.398-14.617,19.058
				c0,0,7.83-0.392,13.051-8.623c0,0-8.949,17.247-14.915,21.558c0,0,4.721-1.283,8.616-3.538
				c-3.758,3.649-8.798,8.494-11.599,10.986c0,0,12.124-1.848,16.648-6.357c-2.551,3.465-8.342,10.762-13.665,13.413
				c0,0,6.809,0.392,12.54-3.92c0,0-7.693,7.447-15.523,11.367h30.949h30.949c-7.83-3.92-15.523-11.367-15.523-11.367
				C560.549,406.611,567.358,406.219,567.358,406.219z"/>
			<path style="fill:#3D594D;" d="M746.523,406.219c-5.323-2.651-11.114-9.948-13.665-13.413c4.524,4.509,16.648,6.357,16.648,6.357
				c-2.801-2.492-7.841-7.337-11.599-10.986c3.895,2.255,8.616,3.538,8.616,3.538c-5.966-4.312-14.915-21.558-14.915-21.558
				c5.22,8.231,13.051,8.623,13.051,8.623c-5.91-4.66-12.243-14.975-14.617-19.058c3.706,4.875,12.753,4.555,12.753,4.555
				c-4.847-3.007-16.188-18.815-16.188-18.815c3.574,4.312,13.578,8.231,13.578,8.231c-4.264-3.322-12.408-15.837-15.125-20.111
				c3.259,3.626,12.959,6.392,12.959,6.392c-6.574-4.704-13.317-17.298-13.317-17.298c2.607,3.528,10.858,5.539,10.858,5.539
				c-4.186-3.92-12.977-16.071-12.977-16.071l8.942,5.096c-10.729-11.759-12.967-23.518-12.967-23.518s-2.237,11.759-12.967,23.518
				l8.942-5.096c0,0-8.791,12.151-12.977,16.071c0,0,8.251-2.011,10.858-5.539c0,0-6.743,12.594-13.317,17.298
				c0,0,9.7-2.766,12.959-6.392c-2.717,4.273-10.861,16.789-15.125,20.111c0,0,10.004-3.92,13.578-8.231
				c0,0-11.341,15.808-16.188,18.815c0,0,9.047,0.32,12.753-4.555c-2.375,4.083-8.707,14.398-14.617,19.058
				c0,0,7.83-0.392,13.051-8.623c0,0-8.949,17.247-14.915,21.558c0,0,4.721-1.283,8.616-3.538
				c-3.758,3.649-8.798,8.494-11.599,10.986c0,0,12.124-1.848,16.648-6.357c-2.551,3.465-8.342,10.762-13.665,13.413
				c0,0,6.809,0.392,12.54-3.92c0,0-7.693,7.447-15.523,11.367h30.949h30.949c-7.83-3.92-15.523-11.367-15.523-11.367
				C739.715,406.611,746.523,406.219,746.523,406.219z"/>
		</g>
		<g style="clip-path:url(#SVGID_00000103948519527560891510000014705212796854777779_);">
			<path style="fill:#293235;" d="M-4.559,440.677l94.254-21.792l40.651,10.896h27.637l19.443-10.896
				c0,0,26.524,7.627,32.169,10.896c5.646,3.269,52.536,15.254,52.536,15.254l24.092-5.448l24.459,5.448l19.516,14.165h43.411
				l35.859-6.538l19.995-13.62h36.061l29.488-37.864l43.439,8.989c0,0,28.077,27.24,35.458,28.874
				c7.38,1.634,28.557,8.172,33.095,5.993c4.538-2.179,9.231-11.986,17.473-11.986s52.107-6.538,52.107-6.538l30.441-16.344h44.753
				V500H-5.002L-4.559,440.677z"/>
			<path style="fill:#293235;" d="M678.637,456.911c-9.214-4.606-19.237-17.287-23.651-23.307
				c7.83,7.836,28.814,11.047,28.814,11.047c-4.848-4.33-13.571-12.749-20.075-19.09c6.741,3.919,14.912,6.148,14.912,6.148
				c-10.326-7.492-25.814-37.462-25.814-37.462c9.035,14.304,22.588,14.985,22.588,14.985c-10.229-8.097-21.189-26.023-25.3-33.117
				c6.414,8.471,22.073,7.915,22.073,7.915c-8.39-5.225-28.018-32.694-28.018-32.694c6.186,7.492,23.501,14.304,23.501,14.304
				c-7.38-5.772-21.476-27.52-26.178-34.946c5.64,6.301,22.428,11.107,22.428,11.107c-11.378-8.174-23.048-30.059-23.048-30.059
				c4.511,6.13,18.792,9.625,18.792,9.625c-7.244-6.811-22.46-27.926-22.46-27.926l15.477,8.855
				c-18.57-20.434-22.442-40.868-22.442-40.868s-3.872,20.434-22.442,40.868l15.477-8.855c0,0-15.216,21.115-22.46,27.926
				c0,0,14.281-3.495,18.792-9.625c0,0-11.671,21.885-23.048,30.059c0,0,16.788-4.806,22.428-11.107
				c-4.702,7.426-18.798,29.174-26.178,34.946c0,0,17.315-6.811,23.501-14.304c0,0-19.629,27.469-28.018,32.694
				c0,0,15.659,0.556,22.073-7.915c-4.11,7.094-15.07,25.02-25.3,33.117c0,0,13.553-0.681,22.588-14.985
				c0,0-15.489,29.97-25.814,37.462c0,0,8.171-2.229,14.912-6.148c-6.504,6.34-15.227,14.76-20.075,19.09
				c0,0,20.984-3.211,28.814-11.047c-4.415,6.021-14.438,18.701-23.651,23.307c0,0,11.785,0.681,21.704-6.811
				c0,0-13.314,12.941-26.867,19.753h53.565H683.8c-13.553-6.811-26.867-19.753-26.867-19.753
				C666.852,457.592,678.637,456.911,678.637,456.911z"/>
			<path style="fill:#293235;" d="M613.79,471.296c-7.326-3.662-15.295-13.745-18.806-18.532c6.226,6.23,22.911,8.784,22.911,8.784
				c-3.855-3.443-10.791-10.137-15.962-15.179c5.36,3.116,11.857,4.889,11.857,4.889c-8.21-5.957-20.526-29.787-20.526-29.787
				c7.184,11.373,17.96,11.915,17.96,11.915c-8.134-6.438-16.848-20.691-20.116-26.332c5.1,6.736,17.551,6.293,17.551,6.293
				c-6.671-4.155-22.278-25.996-22.278-25.996c4.919,5.957,18.686,11.373,18.686,11.373c-5.868-4.59-17.076-21.882-20.815-27.786
				c4.484,5.01,17.833,8.831,17.833,8.831c-9.047-6.499-18.326-23.901-18.326-23.901c3.587,4.874,14.942,7.653,14.942,7.653
				c-5.76-5.416-17.858-22.205-17.858-22.205l12.306,7.041c-14.766-16.247-17.844-32.495-17.844-32.495s-3.079,16.247-17.844,32.495
				l12.306-7.041c0,0-12.098,16.789-17.858,22.205c0,0,11.355-2.779,14.942-7.653c0,0-9.28,17.402-18.326,23.901
				c0,0,13.349-3.821,17.833-8.831c-3.739,5.904-14.946,23.197-20.815,27.786c0,0,13.767-5.416,18.686-11.373
				c0,0-15.607,21.841-22.278,25.996c0,0,12.451,0.442,17.551-6.293c-3.268,5.641-11.983,19.894-20.116,26.332
				c0,0,10.776-0.542,17.96-11.915c0,0-12.315,23.83-20.526,29.787c0,0,6.497-1.772,11.857-4.889
				c-5.172,5.041-12.107,11.736-15.962,15.179c0,0,16.685-2.553,22.911-8.784c-3.51,4.787-11.48,14.87-18.806,18.532
				c0,0,9.37,0.542,17.257-5.416c0,0-10.586,10.29-21.362,15.706h42.591h42.591c-10.776-5.416-21.362-15.706-21.362-15.706
				C604.42,471.838,613.79,471.296,613.79,471.296z"/>
			<path style="fill:#293235;" d="M152.789,444.966c-9.214-4.606-19.237-17.287-23.651-23.307
				c7.83,7.836,28.814,11.047,28.814,11.047c-4.848-4.33-13.571-12.749-20.075-19.09c6.741,3.919,14.912,6.148,14.912,6.148
				c-10.326-7.492-25.814-37.462-25.814-37.462c9.035,14.304,22.588,14.985,22.588,14.985c-10.229-8.097-21.189-26.023-25.3-33.117
				c6.414,8.471,22.073,7.915,22.073,7.915c-8.39-5.225-28.018-32.694-28.018-32.694c6.186,7.492,23.501,14.304,23.501,14.304
				c-7.38-5.772-21.476-27.52-26.178-34.946c5.64,6.301,22.428,11.107,22.428,11.107c-11.378-8.174-23.048-30.059-23.048-30.059
				c4.511,6.13,18.792,9.625,18.792,9.625c-7.244-6.811-22.46-27.926-22.46-27.926l15.477,8.855
				c-18.57-20.434-22.442-40.868-22.442-40.868s-3.872,20.434-22.442,40.868l15.477-8.855c0,0-15.216,21.115-22.46,27.926
				c0,0,14.281-3.495,18.792-9.625c0,0-11.671,21.885-23.048,30.059c0,0,16.788-4.806,22.428-11.107
				c-4.702,7.426-18.798,29.174-26.178,34.946c0,0,17.315-6.811,23.501-14.304c0,0-19.629,27.469-28.018,32.694
				c0,0,15.659,0.556,22.073-7.915c-4.11,7.094-15.07,25.02-25.3,33.117c0,0,13.553-0.681,22.588-14.985
				c0,0-15.489,29.97-25.814,37.462c0,0,8.171-2.229,14.912-6.148c-6.504,6.34-15.227,14.76-20.075,19.09
				c0,0,20.984-3.211,28.814-11.047c-4.415,6.021-14.438,18.701-23.651,23.307c0,0,11.785,0.681,21.704-6.811
				c0,0-13.314,12.941-26.867,19.753h53.565h53.565c-13.553-6.811-26.867-19.753-26.867-19.753
				C141.005,445.647,152.789,444.966,152.789,444.966z"/>
			<path style="fill:#293235;" d="M81.803,436.118c-9.214-4.606-19.237-17.287-23.651-23.307
				c7.83,7.836,28.814,11.047,28.814,11.047c-4.848-4.33-13.571-12.749-20.075-19.09c6.741,3.919,14.912,6.148,14.912,6.148
				c-10.326-7.492-25.814-37.462-25.814-37.462c9.035,14.304,22.588,14.985,22.588,14.985c-10.229-8.097-21.189-26.023-25.3-33.117
				c6.414,8.471,22.073,7.915,22.073,7.915c-8.39-5.225-28.018-32.694-28.018-32.694c6.186,7.492,23.501,14.304,23.501,14.304
				c-7.38-5.772-21.476-27.52-26.178-34.946c5.64,6.301,22.428,11.107,22.428,11.107c-11.378-8.174-23.048-30.059-23.048-30.059
				c4.511,6.13,18.792,9.625,18.792,9.625c-7.244-6.811-22.46-27.926-22.46-27.926l15.477,8.855
				c-18.57-20.434-22.442-40.868-22.442-40.868s-3.872,20.434-22.442,40.868l15.477-8.855c0,0-15.216,21.115-22.46,27.926
				c0,0,14.281-3.495,18.792-9.625c0,0-11.671,21.885-23.048,30.059c0,0,16.788-4.806,22.428-11.107
				c-4.702,7.426-18.798,29.174-26.178,34.946c0,0,17.315-6.811,23.501-14.304c0,0-19.629,27.469-28.018,32.694
				c0,0,15.659,0.556,22.073-7.915c-4.11,7.094-15.07,25.02-25.3,33.117c0,0,13.553-0.681,22.588-14.985
				c0,0-15.489,29.97-25.814,37.462c0,0,8.171-2.229,14.912-6.148c-6.504,6.34-15.227,14.76-20.075,19.09
				c0,0,20.984-3.211,28.814-11.047c-4.415,6.021-14.438,18.701-23.651,23.307c0,0,11.785,0.681,21.704-6.811
				c0,0-13.314,12.941-26.867,19.753h53.565h53.565c-13.553-6.811-26.867-19.753-26.867-19.753
				C70.018,436.799,81.803,436.118,81.803,436.118z"/>
			<path style="fill:#293235;" d="M349.193,485.533c-6.989-3.494-14.593-13.114-17.942-17.681c5.94,5.944,21.858,8.38,21.858,8.38
				c-3.678-3.285-10.295-9.672-15.229-14.481c5.114,2.973,11.312,4.664,11.312,4.664c-7.833-5.684-19.583-28.419-19.583-28.419
				c6.854,10.851,17.135,11.367,17.135,11.367c-7.76-6.143-16.074-19.741-19.192-25.122c4.865,6.426,16.744,6.004,16.744,6.004
				c-6.364-3.964-21.255-24.802-21.255-24.802c4.693,5.684,17.828,10.851,17.828,10.851c-5.599-4.379-16.292-20.877-19.859-26.51
				c4.279,4.78,17.014,8.426,17.014,8.426c-8.631-6.2-17.484-22.803-17.484-22.803c3.422,4.65,14.256,7.302,14.256,7.302
				c-5.495-5.167-17.038-21.185-17.038-21.185l11.741,6.717c-14.087-15.501-17.025-31.002-17.025-31.002
				s-2.937,15.501-17.025,31.002l11.741-6.717c0,0-11.543,16.018-17.038,21.185c0,0,10.834-2.651,14.256-7.302
				c0,0-8.853,16.602-17.484,22.803c0,0,12.736-3.646,17.014-8.426c-3.567,5.633-14.26,22.131-19.859,26.51
				c0,0,13.135-5.167,17.828-10.851c0,0-14.89,20.838-21.255,24.802c0,0,11.879,0.422,16.744-6.004
				c-3.118,5.382-11.432,18.98-19.192,25.122c0,0,10.281-0.517,17.135-11.367c0,0-11.75,22.735-19.583,28.419
				c0,0,6.199-1.691,11.312-4.664c-4.934,4.81-11.551,11.197-15.229,14.481c0,0,15.918-2.436,21.858-8.38
				c-3.349,4.567-10.952,14.187-17.942,17.681c0,0,8.94,0.517,16.464-5.167c0,0-10.1,9.817-20.381,14.984h40.634h40.634
				c-10.281-5.167-20.381-14.984-20.381-14.984C340.253,486.05,349.193,485.533,349.193,485.533z"/>
			<path style="fill:#293235;" d="M217.597,467.963c-6.989-3.494-14.593-13.114-17.942-17.681c5.94,5.944,21.858,8.38,21.858,8.38
				c-3.678-3.285-10.295-9.672-15.229-14.481c5.114,2.973,11.312,4.664,11.312,4.664c-7.833-5.684-19.583-28.419-19.583-28.419
				c6.854,10.851,17.135,11.367,17.135,11.367c-7.76-6.143-16.074-19.741-19.192-25.122c4.865,6.426,16.744,6.004,16.744,6.004
				c-6.364-3.964-21.255-24.802-21.255-24.802c4.693,5.684,17.828,10.851,17.828,10.851c-5.599-4.379-16.292-20.877-19.859-26.51
				c4.278,4.78,17.014,8.426,17.014,8.426c-8.631-6.2-17.484-22.803-17.484-22.803c3.422,4.65,14.256,7.302,14.256,7.302
				c-5.495-5.167-17.038-21.185-17.038-21.185l11.741,6.717c-14.087-15.501-17.025-31.002-17.025-31.002
				s-2.937,15.501-17.025,31.002l11.741-6.717c0,0-11.543,16.018-17.038,21.185c0,0,10.834-2.651,14.256-7.302
				c0,0-8.853,16.602-17.484,22.803c0,0,12.736-3.646,17.014-8.426c-3.567,5.633-14.26,22.131-19.859,26.51
				c0,0,13.135-5.167,17.828-10.851c0,0-14.89,20.838-21.255,24.802c0,0,11.879,0.422,16.744-6.004
				c-3.118,5.382-11.432,18.98-19.192,25.122c0,0,10.281-0.517,17.135-11.367c0,0-11.75,22.735-19.583,28.419
				c0,0,6.199-1.691,11.312-4.664c-4.934,4.81-11.551,11.197-15.229,14.481c0,0,15.918-2.436,21.858-8.38
				c-3.349,4.567-10.952,14.187-17.942,17.681c0,0,8.94,0.517,16.464-5.167c0,0-10.1,9.817-20.381,14.984h40.634h40.634
				c-10.281-5.167-20.381-14.984-20.381-14.984C208.657,468.479,217.597,467.963,217.597,467.963z"/>
			<path style="fill:#293235;" d="M747.304,436.118c-9.214-4.606-19.237-17.287-23.651-23.307
				c7.83,7.836,28.814,11.047,28.814,11.047c-4.848-4.33-13.571-12.749-20.075-19.09c6.741,3.919,14.912,6.148,14.912,6.148
				c-10.326-7.492-25.814-37.462-25.814-37.462c9.035,14.304,22.588,14.985,22.588,14.985c-10.229-8.097-21.189-26.023-25.3-33.117
				c6.414,8.471,22.073,7.915,22.073,7.915c-8.39-5.225-28.018-32.694-28.018-32.694c6.186,7.492,23.501,14.304,23.501,14.304
				c-7.38-5.772-21.476-27.52-26.178-34.946c5.64,6.301,22.428,11.107,22.428,11.107c-11.378-8.174-23.048-30.059-23.048-30.059
				c4.511,6.13,18.792,9.625,18.792,9.625c-7.244-6.811-22.46-27.926-22.46-27.926l15.477,8.855
				c-18.57-20.434-22.442-40.868-22.442-40.868s-3.872,20.434-22.442,40.868l15.477-8.855c0,0-15.216,21.115-22.46,27.926
				c0,0,14.281-3.495,18.792-9.625c0,0-11.671,21.885-23.048,30.059c0,0,16.788-4.806,22.428-11.107
				c-4.702,7.426-18.798,29.174-26.178,34.946c0,0,17.315-6.811,23.501-14.304c0,0-19.629,27.469-28.018,32.694
				c0,0,15.659,0.556,22.073-7.915c-4.11,7.094-15.07,25.02-25.3,33.117c0,0,13.553-0.681,22.588-14.985
				c0,0-15.489,29.97-25.814,37.462c0,0,8.171-2.229,14.912-6.148c-6.504,6.34-15.227,14.76-20.075,19.09
				c0,0,20.984-3.211,28.814-11.047c-4.415,6.021-14.438,18.701-23.651,23.307c0,0,11.785,0.681,21.704-6.811
				c0,0-13.314,12.941-26.867,19.753h53.565h53.565c-13.553-6.811-26.867-19.753-26.867-19.753
				C735.519,436.799,747.304,436.118,747.304,436.118z"/>
		</g>
		<path style="clip-path:url(#SVGID_00000103948519527560891510000014705212796854777779_);fill:#F7E5C6;" d="M-1.285,27.277
			c3.852,2.809,90.645-4.384,123.645-6.822s30.948-7.051,58.519-10.392S203.8,6.697,229.65,6.042s37.71-5.507,45.71-6.476
			S0-0.434,0-0.434L-1.285,27.277z"/>
	</g>
</g>
</svg>
